<svg xmlns="http://www.w3.org/2000/svg" version="1.1" xmlns:xlink="http://www.w3.org/1999/xlink" xmlns:svgjs="http://svgjs.dev/svgjs" width="1440" height="560" preserveAspectRatio="none" viewBox="0 0 1440 560"><g mask="url(&quot;#SvgjsMask1056&quot;)" fill="none"><rect width="1440" height="560" x="0" y="0" fill="rgba(13, 16, 23, 1)"></rect><path d="M722.54 20.74L743.41 20.74L743.41 72.05L722.54 72.05z" fill="rgba(202, 227, 255, 1)"></path><path d="M19.59 464.35L72.53 464.35L72.53 507.95L19.59 507.95z" stroke="rgba(255, 241, 95, 1)"></path><path d="M1259.67 548.3a12.97 12.97 0 1 0 25.26-5.9z" stroke="#e73635"></path><path d="M734.23 421.55 a46.24 46.24 0 1 0 92.48 0 a46.24 46.24 0 1 0 -92.48 0z" stroke="rgba(202, 227, 255, 1)"></path><path d="M1276.26 108.99L1310.02 108.99L1310.02 142.75L1276.26 142.75z" fill="rgba(4, 135, 250, 1)"></path><path d="M134.01 515.94 a11.59 11.59 0 1 0 23.18 0 a11.59 11.59 0 1 0 -23.18 0z" stroke="rgba(4, 135, 250, 1)"></path><path d="M866.86 306.88L911.66 306.88L911.66 318.01L866.86 318.01z" fill="rgba(4, 135, 250, 1)"></path><path d="M619.03 255.87L658.42 255.87L658.42 306.19L619.03 306.19z" fill="rgba(4, 135, 250, 1)"></path><path d="M403.46 431.01a10.02 10.02 0 1 0-12.1 15.98z" fill="rgba(255, 241, 95, 1)"></path><path d="M98.83 430.87 a19.14 19.14 0 1 0 38.28 0 a19.14 19.14 0 1 0 -38.28 0z" fill="rgba(4, 135, 250, 1)"></path><path d="M1352.29 483.77L1354.26 483.77L1354.26 496.04L1352.29 496.04z" stroke="rgba(255, 241, 95, 1)"></path><path d="M795.85 162.37L821.55 162.37L821.55 195.65L795.85 195.65z" stroke="#e73635"></path><path d="M1148.75 210.45a35.31 35.31 0 1 0-32.33-62.78z" stroke="rgba(4, 135, 250, 1)"></path><path d="M642.56 237.01L694.11 237.01L694.11 279.45L642.56 279.45z" stroke="rgba(202, 227, 255, 1)"></path><path d="M387.45 456.15 a48.48 48.48 0 1 0 96.96 0 a48.48 48.48 0 1 0 -96.96 0z" stroke="rgba(255, 241, 95, 1)"></path><path d="M132.6 463.73L133.04 463.73L133.04 464.17L132.6 464.17z" stroke="rgba(4, 135, 250, 1)"></path><path d="M1169.59 236.64a54.13 54.13 0 1 0-83.35 69.07z" fill="rgba(255, 241, 95, 1)"></path><path d="M622.66 359.87L631.4 359.87L631.4 368.61L622.66 368.61z" stroke="rgba(255, 241, 95, 1)"></path><path d="M256.25 434.19a42.49 42.49 0 1 0 39.43-75.28z" fill="rgba(4, 135, 250, 1)"></path><path d="M198.65 440.72 a22.34 22.34 0 1 0 44.68 0 a22.34 22.34 0 1 0 -44.68 0z" fill="rgba(4, 135, 250, 1)"></path><path d="M1417.36 412.66L1420.59 412.66L1420.59 415.89L1417.36 415.89z" stroke="#e73635"></path><path d="M879.55 45.42L890.17 45.42L890.17 56.04L879.55 56.04z" fill="rgba(4, 135, 250, 1)"></path><path d="M876.59 78.67L896.14 78.67L896.14 114.38L876.59 114.38z" fill="rgba(4, 135, 250, 1)"></path><path d="M328.35 555.61 a5.36 5.36 0 1 0 10.72 0 a5.36 5.36 0 1 0 -10.72 0z" stroke="rgba(202, 227, 255, 1)"></path><path d="M1345.42 50.95L1347.58 50.95L1347.58 82.9L1345.42 82.9z" fill="#e73635"></path><path d="M605 41.66 a53.75 53.75 0 1 0 107.5 0 a53.75 53.75 0 1 0 -107.5 0z" stroke="rgba(4, 135, 250, 1)"></path><path d="M48.35 525.7L65.54 525.7L65.54 542.89L48.35 542.89z" stroke="rgba(4, 135, 250, 1)"></path><path d="M976.17 410.82L980.25 410.82L980.25 441.24L976.17 441.24z" fill="rgba(202, 227, 255, 1)"></path><path d="M716.51 528.19L771.15 528.19L771.15 580.28L716.51 580.28z" fill="rgba(202, 227, 255, 1)"></path><path d="M230.58 32.51L277.74 32.51L277.74 79.67L230.58 79.67z" fill="rgba(255, 241, 95, 1)"></path><path d="M177.22 128.34L203.6 128.34L203.6 154.72L177.22 154.72z" fill="rgba(255, 241, 95, 1)"></path><path d="M322.33 146.94L363.1 146.94L363.1 161.03L322.33 161.03z" fill="#e73635"></path><path d="M1157.34 96.65L1165.21 96.65L1165.21 104.52L1157.34 104.52z" stroke="rgba(255, 241, 95, 1)"></path></g><defs><mask id="SvgjsMask1056"><rect width="1440" height="560" fill="#ffffff"></rect></mask></defs></svg>